<?xml version="1.0" encoding="utf-8" standalone="no"?>
<!DOCTYPE svg PUBLIC "-//W3C//DTD SVG 1.1//EN"
  "http://www.w3.org/Graphics/SVG/1.1/DTD/svg11.dtd">
<svg xmlns:xlink="http://www.w3.org/1999/xlink" width="756.487pt" height="385.751507pt" viewBox="0 0 756.487 385.751507" xmlns="http://www.w3.org/2000/svg" version="1.1">
 <metadata>
  <rdf:RDF xmlns:dc="http://purl.org/dc/elements/1.1/" xmlns:cc="http://creativecommons.org/ns#" xmlns:rdf="http://www.w3.org/1999/02/22-rdf-syntax-ns#">
   <cc:Work>
    <dc:type rdf:resource="http://purl.org/dc/dcmitype/StillImage"/>
    <dc:date>2026-05-02T16:09:04.667917</dc:date>
    <dc:format>image/svg+xml</dc:format>
    <dc:creator>
     <cc:Agent>
      <dc:title>Matplotlib v3.9.4, https://matplotlib.org/</dc:title>
     </cc:Agent>
    </dc:creator>
   </cc:Work>
  </rdf:RDF>
 </metadata>
 <defs>
  <style type="text/css">*{stroke-linejoin: round; stroke-linecap: butt}</style>
 </defs>
 <g id="figure_1">
  <g id="patch_1">
   <path d="M 0 385.751507 
L 756.487 385.751507 
L 756.487 0 
L 0 0 
z
" style="fill: #ffffff"/>
  </g>
  <g id="axes_1">
   <g id="patch_2">
    <path d="M 12.96 372.791507 
L 743.527 372.791507 
L 743.527 12.96 
L 12.96 12.96 
z
" style="fill: #ffffff"/>
   </g>
   <g id="matplotlib.axis_1"/>
   <g id="matplotlib.axis_2"/>
   <g id="patch_3">
    <path d="M 200.508543 251.212074 
L 632.306352 251.212074 
Q 642.119939 251.212074 642.119939 241.398487 
L 642.119939 119.819054 
Q 642.119939 110.005467 632.306352 110.005467 
L 200.508543 110.005467 
Q 190.694957 110.005467 190.694957 119.819054 
L 190.694957 241.398487 
Q 190.694957 251.212074 200.508543 251.212074 
z
" clip-path="url(#p2ac3c970d2)" style="fill: #1d4ed8; opacity: 0.1; stroke: #1d4ed8; stroke-linejoin: miter"/>
   </g>
   <g id="patch_4">
    <path d="M 508.000922 240.308089 
L 630.125555 240.308089 
Q 638.848743 240.308089 638.848743 231.584901 
L 638.848743 129.63264 
Q 638.848743 120.909452 630.125555 120.909452 
L 508.000922 120.909452 
Q 499.277734 120.909452 499.277734 129.63264 
L 499.277734 231.584901 
Q 499.277734 240.308089 508.000922 240.308089 
z
" clip-path="url(#p2ac3c970d2)" style="fill: #b45309; opacity: 0.18; stroke: #b45309; stroke-width: 1.2; stroke-linejoin: miter"/>
   </g>
   <g id="patch_5">
    <path d="M 36.770373 296.463612 
Q 350.986707 296.463612 663.861401 296.463612 
" clip-path="url(#p2ac3c970d2)" style="fill: none; stroke: #374151; stroke-width: 1.2; stroke-linecap: round"/>
    <path d="M 659.061401 294.063612 
L 663.861401 296.463612 
L 659.061401 298.863612 
z
" clip-path="url(#p2ac3c970d2)" style="fill: #374151; stroke: #374151; stroke-width: 1.2; stroke-linecap: round"/>
   </g>
   <g id="text_1">
    <text style="fill: #1d4ed8; font: 600 10px 'Inter', 'SF Pro Text', 'Helvetica Neue', 'Helvetica', 'Arial', 'DejaVu Sans', sans-serif; text-anchor: start" x="196.146949" y="103.139662" transform="rotate(-0 196.146949 103.139662)">commit-LoRA v3  —  blocks 2-4  (full response, n_blocks=3)</text>
   </g>
   <g id="text_2">
    <text style="fill: #b45309; font: 600 10px 'Inter', 'SF Pro Text', 'Helvetica Neue', 'Helvetica', 'Arial', 'DejaVu Sans', sans-serif; text-anchor: end" x="494.91614" y="262.883043" transform="rotate(-0 494.91614 262.883043)">commit-LoRA v2  —  last block only  (answer span, n_blocks=1)</text>
   </g>
   <g id="patch_6">
    <path d="M 51.123948 225.587709 
L 171.067784 225.587709 
Q 176.519776 225.587709 176.519776 220.135716 
L 176.519776 143.807821 
Q 176.519776 138.355828 171.067784 138.355828 
L 51.123948 138.355828 
Q 45.671955 138.355828 45.671955 143.807821 
L 45.671955 220.135716 
Q 45.671955 225.587709 51.123948 225.587709 
z
" clip-path="url(#p2ac3c970d2)" style="fill: #ffffff; stroke: #111827; stroke-linejoin: miter"/>
   </g>
   <g id="text_3">
    <text style="fill: #111827; font: 10px 'Inter', 'SF Pro Text', 'Helvetica Neue', 'Helvetica', 'Arial', 'DejaVu Sans', sans-serif" transform="translate(94.240397 116.032867)">Block 1</text>
    <text style="fill: #111827; font: 10px 'Inter', 'SF Pro Text', 'Helvetica Neue', 'Helvetica', 'Arial', 'DejaVu Sans', sans-serif" transform="translate(84.416178 126.571929)">tokens 1-32</text>
   </g>
   <g id="patch_7">
    <path d="M 203.779739 225.587709 
L 323.723575 225.587709 
Q 329.175567 225.587709 329.175567 220.135716 
L 329.175567 143.807821 
Q 329.175567 138.355828 323.723575 138.355828 
L 203.779739 138.355828 
Q 198.327746 138.355828 198.327746 143.807821 
L 198.327746 220.135716 
Q 198.327746 225.587709 203.779739 225.587709 
z
" clip-path="url(#p2ac3c970d2)" style="fill: #ffffff; stroke: #111827; stroke-linejoin: miter"/>
   </g>
   <g id="text_4">
    <text style="fill: #111827; font: 10px 'Inter', 'SF Pro Text', 'Helvetica Neue', 'Helvetica', 'Arial', 'DejaVu Sans', sans-serif" transform="translate(246.896188 116.032867)">Block 2</text>
    <text style="fill: #111827; font: 10px 'Inter', 'SF Pro Text', 'Helvetica Neue', 'Helvetica', 'Arial', 'DejaVu Sans', sans-serif" transform="translate(234.292282 126.571929)">tokens 33-64</text>
   </g>
   <g id="patch_8">
    <path d="M 356.43553 225.587709 
L 476.379366 225.587709 
Q 481.831358 225.587709 481.831358 220.135716 
L 481.831358 143.807821 
Q 481.831358 138.355828 476.379366 138.355828 
L 356.43553 138.355828 
Q 350.983537 138.355828 350.983537 143.807821 
L 350.983537 220.135716 
Q 350.983537 225.587709 356.43553 225.587709 
z
" clip-path="url(#p2ac3c970d2)" style="fill: #ffffff; stroke: #111827; stroke-linejoin: miter"/>
   </g>
   <g id="text_5">
    <text style="fill: #111827; font: 10px 'Inter', 'SF Pro Text', 'Helvetica Neue', 'Helvetica', 'Arial', 'DejaVu Sans', sans-serif" transform="translate(399.551979 116.032867)">Block 3</text>
    <text style="fill: #111827; font: 10px 'Inter', 'SF Pro Text', 'Helvetica Neue', 'Helvetica', 'Arial', 'DejaVu Sans', sans-serif" transform="translate(386.948073 126.571929)">tokens 65-96</text>
   </g>
   <g id="patch_9">
    <path d="M 509.091321 225.587709 
L 629.035157 225.587709 
Q 634.487149 225.587709 634.487149 220.135716 
L 634.487149 143.807821 
Q 634.487149 138.355828 629.035157 138.355828 
L 509.091321 138.355828 
Q 503.639328 138.355828 503.639328 143.807821 
L 503.639328 220.135716 
Q 503.639328 225.587709 509.091321 225.587709 
z
" clip-path="url(#p2ac3c970d2)" style="fill: #ffffff; stroke: #111827; stroke-linejoin: miter"/>
   </g>
   <g id="text_6">
    <text style="fill: #111827; font: 10px 'Inter', 'SF Pro Text', 'Helvetica Neue', 'Helvetica', 'Arial', 'DejaVu Sans', sans-serif" transform="translate(552.20777 116.032867)">Block 4</text>
    <text style="fill: #111827; font: 10px 'Inter', 'SF Pro Text', 'Helvetica Neue', 'Helvetica', 'Arial', 'DejaVu Sans', sans-serif" transform="translate(536.824176 126.571929)">tokens 97-128</text>
   </g>
   <g id="text_7">
    <text style="fill: #374151; font: 9.5px 'Inter', 'SF Pro Text', 'Helvetica Neue', 'Helvetica', 'Arial', 'DejaVu Sans', sans-serif; text-anchor: start" x="34.76797" y="322.489492" transform="rotate(-0 34.76797 322.489492)">diffusion timestep   (semi-AR: block N attends to blocks 1..N-1)</text>
   </g>
   <g id="text_8">
    <text style="fill: #111827; font: 600 12px 'Inter', 'SF Pro Text', 'Helvetica Neue', 'Helvetica', 'Arial', 'DejaVu Sans', sans-serif; text-anchor: start" x="34.76797" y="35.158731" transform="rotate(-0 34.76797 35.158731)">Figure 5   LLaDA semi-AR sampler  —  commit-LoRA v2 vs v3 application regions</text>
   </g>
   <g id="text_9">
    <text style="fill: #374151; font: 9px 'Inter', 'SF Pro Text', 'Helvetica Neue', 'Helvetica', 'Arial', 'DejaVu Sans', sans-serif; text-anchor: start" x="34.76797" y="54.976389" transform="rotate(-0 34.76797 54.976389)">v2 fires only on the last block (answer span); v3 fires on blocks 2-4 with full-response loss. RESULTS_TRACK2.md attributes +4 pp of the c2c lift to this block-coverage change.</text>
   </g>
   <g id="patch_10">
    <path d="M 52.242969 158.939826 
L 64.043807 158.939826 
L 64.043807 146.939991 
L 52.242969 146.939991 
z
" clip-path="url(#p2ac3c970d2)" style="fill: #e5e7eb; opacity: 0.9; stroke: #374151; stroke-width: 0.4; stroke-linejoin: miter"/>
   </g>
   <g id="patch_11">
    <path d="M 67.372249 158.939826 
L 79.173086 158.939826 
L 79.173086 146.939991 
L 67.372249 146.939991 
z
" clip-path="url(#p2ac3c970d2)" style="fill: #e5e7eb; opacity: 0.9; stroke: #374151; stroke-width: 0.4; stroke-linejoin: miter"/>
   </g>
   <g id="patch_12">
    <path d="M 82.501528 158.939826 
L 94.302366 158.939826 
L 94.302366 146.939991 
L 82.501528 146.939991 
z
" clip-path="url(#p2ac3c970d2)" style="fill: #e5e7eb; opacity: 0.9; stroke: #374151; stroke-width: 0.4; stroke-linejoin: miter"/>
   </g>
   <g id="patch_13">
    <path d="M 97.630807 158.939826 
L 109.431645 158.939826 
L 109.431645 146.939991 
L 97.630807 146.939991 
z
" clip-path="url(#p2ac3c970d2)" style="fill: #e5e7eb; opacity: 0.9; stroke: #374151; stroke-width: 0.4; stroke-linejoin: miter"/>
   </g>
   <g id="patch_14">
    <path d="M 112.760086 158.939826 
L 124.560924 158.939826 
L 124.560924 146.939991 
L 112.760086 146.939991 
z
" clip-path="url(#p2ac3c970d2)" style="fill: #e5e7eb; opacity: 0.9; stroke: #374151; stroke-width: 0.4; stroke-linejoin: miter"/>
   </g>
   <g id="patch_15">
    <path d="M 127.889366 158.939826 
L 139.690204 158.939826 
L 139.690204 146.939991 
L 127.889366 146.939991 
z
" clip-path="url(#p2ac3c970d2)" style="fill: #e5e7eb; opacity: 0.9; stroke: #374151; stroke-width: 0.4; stroke-linejoin: miter"/>
   </g>
   <g id="patch_16">
    <path d="M 143.018645 158.939826 
L 154.819483 158.939826 
L 154.819483 146.939991 
L 143.018645 146.939991 
z
" clip-path="url(#p2ac3c970d2)" style="fill: #e5e7eb; opacity: 0.9; stroke: #374151; stroke-width: 0.4; stroke-linejoin: miter"/>
   </g>
   <g id="patch_17">
    <path d="M 158.147924 158.939826 
L 169.948762 158.939826 
L 169.948762 146.939991 
L 158.147924 146.939991 
z
" clip-path="url(#p2ac3c970d2)" style="fill: #e5e7eb; opacity: 0.9; stroke: #374151; stroke-width: 0.4; stroke-linejoin: miter"/>
   </g>
   <g id="patch_18">
    <path d="M 52.242969 178.2944 
L 64.043807 178.2944 
L 64.043807 166.294564 
L 52.242969 166.294564 
z
" clip-path="url(#p2ac3c970d2)" style="fill: #e5e7eb; opacity: 0.9; stroke: #374151; stroke-width: 0.4; stroke-linejoin: miter"/>
   </g>
   <g id="patch_19">
    <path d="M 67.372249 178.2944 
L 79.173086 178.2944 
L 79.173086 166.294564 
L 67.372249 166.294564 
z
" clip-path="url(#p2ac3c970d2)" style="fill: #e5e7eb; opacity: 0.9; stroke: #374151; stroke-width: 0.4; stroke-linejoin: miter"/>
   </g>
   <g id="patch_20">
    <path d="M 82.501528 178.2944 
L 94.302366 178.2944 
L 94.302366 166.294564 
L 82.501528 166.294564 
z
" clip-path="url(#p2ac3c970d2)" style="fill: #e5e7eb; opacity: 0.9; stroke: #374151; stroke-width: 0.4; stroke-linejoin: miter"/>
   </g>
   <g id="patch_21">
    <path d="M 97.630807 178.2944 
L 109.431645 178.2944 
L 109.431645 166.294564 
L 97.630807 166.294564 
z
" clip-path="url(#p2ac3c970d2)" style="fill: #e5e7eb; opacity: 0.9; stroke: #374151; stroke-width: 0.4; stroke-linejoin: miter"/>
   </g>
   <g id="patch_22">
    <path d="M 112.760086 178.2944 
L 124.560924 178.2944 
L 124.560924 166.294564 
L 112.760086 166.294564 
z
" clip-path="url(#p2ac3c970d2)" style="fill: #e5e7eb; opacity: 0.9; stroke: #374151; stroke-width: 0.4; stroke-linejoin: miter"/>
   </g>
   <g id="patch_23">
    <path d="M 127.889366 178.2944 
L 139.690204 178.2944 
L 139.690204 166.294564 
L 127.889366 166.294564 
z
" clip-path="url(#p2ac3c970d2)" style="fill: #e5e7eb; opacity: 0.9; stroke: #374151; stroke-width: 0.4; stroke-linejoin: miter"/>
   </g>
   <g id="patch_24">
    <path d="M 143.018645 178.2944 
L 154.819483 178.2944 
L 154.819483 166.294564 
L 143.018645 166.294564 
z
" clip-path="url(#p2ac3c970d2)" style="fill: #e5e7eb; opacity: 0.9; stroke: #374151; stroke-width: 0.4; stroke-linejoin: miter"/>
   </g>
   <g id="patch_25">
    <path d="M 158.147924 178.2944 
L 169.948762 178.2944 
L 169.948762 166.294564 
L 158.147924 166.294564 
z
" clip-path="url(#p2ac3c970d2)" style="fill: #e5e7eb; opacity: 0.9; stroke: #374151; stroke-width: 0.4; stroke-linejoin: miter"/>
   </g>
   <g id="patch_26">
    <path d="M 52.242969 197.648973 
L 64.043807 197.648973 
L 64.043807 185.649138 
L 52.242969 185.649138 
z
" clip-path="url(#p2ac3c970d2)" style="fill: #e5e7eb; opacity: 0.9; stroke: #374151; stroke-width: 0.4; stroke-linejoin: miter"/>
   </g>
   <g id="patch_27">
    <path d="M 67.372249 197.648973 
L 79.173086 197.648973 
L 79.173086 185.649138 
L 67.372249 185.649138 
z
" clip-path="url(#p2ac3c970d2)" style="fill: #e5e7eb; opacity: 0.9; stroke: #374151; stroke-width: 0.4; stroke-linejoin: miter"/>
   </g>
   <g id="patch_28">
    <path d="M 82.501528 197.648973 
L 94.302366 197.648973 
L 94.302366 185.649138 
L 82.501528 185.649138 
z
" clip-path="url(#p2ac3c970d2)" style="fill: #e5e7eb; opacity: 0.9; stroke: #374151; stroke-width: 0.4; stroke-linejoin: miter"/>
   </g>
   <g id="patch_29">
    <path d="M 97.630807 197.648973 
L 109.431645 197.648973 
L 109.431645 185.649138 
L 97.630807 185.649138 
z
" clip-path="url(#p2ac3c970d2)" style="fill: #e5e7eb; opacity: 0.9; stroke: #374151; stroke-width: 0.4; stroke-linejoin: miter"/>
   </g>
   <g id="patch_30">
    <path d="M 112.760086 197.648973 
L 124.560924 197.648973 
L 124.560924 185.649138 
L 112.760086 185.649138 
z
" clip-path="url(#p2ac3c970d2)" style="fill: #e5e7eb; opacity: 0.9; stroke: #374151; stroke-width: 0.4; stroke-linejoin: miter"/>
   </g>
   <g id="patch_31">
    <path d="M 127.889366 197.648973 
L 139.690204 197.648973 
L 139.690204 185.649138 
L 127.889366 185.649138 
z
" clip-path="url(#p2ac3c970d2)" style="fill: #e5e7eb; opacity: 0.9; stroke: #374151; stroke-width: 0.4; stroke-linejoin: miter"/>
   </g>
   <g id="patch_32">
    <path d="M 143.018645 197.648973 
L 154.819483 197.648973 
L 154.819483 185.649138 
L 143.018645 185.649138 
z
" clip-path="url(#p2ac3c970d2)" style="fill: #e5e7eb; opacity: 0.9; stroke: #374151; stroke-width: 0.4; stroke-linejoin: miter"/>
   </g>
   <g id="patch_33">
    <path d="M 158.147924 197.648973 
L 169.948762 197.648973 
L 169.948762 185.649138 
L 158.147924 185.649138 
z
" clip-path="url(#p2ac3c970d2)" style="fill: #e5e7eb; opacity: 0.9; stroke: #374151; stroke-width: 0.4; stroke-linejoin: miter"/>
   </g>
   <g id="patch_34">
    <path d="M 52.242969 217.003547 
L 64.043807 217.003547 
L 64.043807 205.003711 
L 52.242969 205.003711 
z
" clip-path="url(#p2ac3c970d2)" style="fill: #e5e7eb; opacity: 0.9; stroke: #374151; stroke-width: 0.4; stroke-linejoin: miter"/>
   </g>
   <g id="patch_35">
    <path d="M 67.372249 217.003547 
L 79.173086 217.003547 
L 79.173086 205.003711 
L 67.372249 205.003711 
z
" clip-path="url(#p2ac3c970d2)" style="fill: #e5e7eb; opacity: 0.9; stroke: #374151; stroke-width: 0.4; stroke-linejoin: miter"/>
   </g>
   <g id="patch_36">
    <path d="M 82.501528 217.003547 
L 94.302366 217.003547 
L 94.302366 205.003711 
L 82.501528 205.003711 
z
" clip-path="url(#p2ac3c970d2)" style="fill: #e5e7eb; opacity: 0.9; stroke: #374151; stroke-width: 0.4; stroke-linejoin: miter"/>
   </g>
   <g id="patch_37">
    <path d="M 97.630807 217.003547 
L 109.431645 217.003547 
L 109.431645 205.003711 
L 97.630807 205.003711 
z
" clip-path="url(#p2ac3c970d2)" style="fill: #e5e7eb; opacity: 0.9; stroke: #374151; stroke-width: 0.4; stroke-linejoin: miter"/>
   </g>
   <g id="patch_38">
    <path d="M 112.760086 217.003547 
L 124.560924 217.003547 
L 124.560924 205.003711 
L 112.760086 205.003711 
z
" clip-path="url(#p2ac3c970d2)" style="fill: #e5e7eb; opacity: 0.9; stroke: #374151; stroke-width: 0.4; stroke-linejoin: miter"/>
   </g>
   <g id="patch_39">
    <path d="M 127.889366 217.003547 
L 139.690204 217.003547 
L 139.690204 205.003711 
L 127.889366 205.003711 
z
" clip-path="url(#p2ac3c970d2)" style="fill: #e5e7eb; opacity: 0.9; stroke: #374151; stroke-width: 0.4; stroke-linejoin: miter"/>
   </g>
   <g id="patch_40">
    <path d="M 143.018645 217.003547 
L 154.819483 217.003547 
L 154.819483 205.003711 
L 143.018645 205.003711 
z
" clip-path="url(#p2ac3c970d2)" style="fill: #e5e7eb; opacity: 0.9; stroke: #374151; stroke-width: 0.4; stroke-linejoin: miter"/>
   </g>
   <g id="patch_41">
    <path d="M 158.147924 217.003547 
L 169.948762 217.003547 
L 169.948762 205.003711 
L 158.147924 205.003711 
z
" clip-path="url(#p2ac3c970d2)" style="fill: #e5e7eb; opacity: 0.9; stroke: #374151; stroke-width: 0.4; stroke-linejoin: miter"/>
   </g>
   <g id="patch_42">
    <path d="M 204.89876 158.939826 
L 216.699598 158.939826 
L 216.699598 146.939991 
L 204.89876 146.939991 
z
" clip-path="url(#p2ac3c970d2)" style="fill: #e5e7eb; opacity: 0.9; stroke: #374151; stroke-width: 0.4; stroke-linejoin: miter"/>
   </g>
   <g id="patch_43">
    <path d="M 220.02804 158.939826 
L 231.828877 158.939826 
L 231.828877 146.939991 
L 220.02804 146.939991 
z
" clip-path="url(#p2ac3c970d2)" style="fill: #e5e7eb; opacity: 0.9; stroke: #374151; stroke-width: 0.4; stroke-linejoin: miter"/>
   </g>
   <g id="patch_44">
    <path d="M 235.157319 158.939826 
L 246.958157 158.939826 
L 246.958157 146.939991 
L 235.157319 146.939991 
z
" clip-path="url(#p2ac3c970d2)" style="fill: #e5e7eb; opacity: 0.9; stroke: #374151; stroke-width: 0.4; stroke-linejoin: miter"/>
   </g>
   <g id="patch_45">
    <path d="M 250.286598 158.939826 
L 262.087436 158.939826 
L 262.087436 146.939991 
L 250.286598 146.939991 
z
" clip-path="url(#p2ac3c970d2)" style="fill: #e5e7eb; opacity: 0.9; stroke: #374151; stroke-width: 0.4; stroke-linejoin: miter"/>
   </g>
   <g id="patch_46">
    <path d="M 265.415877 158.939826 
L 277.216715 158.939826 
L 277.216715 146.939991 
L 265.415877 146.939991 
z
" clip-path="url(#p2ac3c970d2)" style="fill: #e5e7eb; opacity: 0.9; stroke: #374151; stroke-width: 0.4; stroke-linejoin: miter"/>
   </g>
   <g id="patch_47">
    <path d="M 280.545157 158.939826 
L 292.345995 158.939826 
L 292.345995 146.939991 
L 280.545157 146.939991 
z
" clip-path="url(#p2ac3c970d2)" style="fill: #e5e7eb; opacity: 0.9; stroke: #374151; stroke-width: 0.4; stroke-linejoin: miter"/>
   </g>
   <g id="patch_48">
    <path d="M 295.674436 158.939826 
L 307.475274 158.939826 
L 307.475274 146.939991 
L 295.674436 146.939991 
z
" clip-path="url(#p2ac3c970d2)" style="fill: #e5e7eb; opacity: 0.9; stroke: #374151; stroke-width: 0.4; stroke-linejoin: miter"/>
   </g>
   <g id="patch_49">
    <path d="M 310.803715 158.939826 
L 322.604553 158.939826 
L 322.604553 146.939991 
L 310.803715 146.939991 
z
" clip-path="url(#p2ac3c970d2)" style="fill: #e5e7eb; opacity: 0.9; stroke: #374151; stroke-width: 0.4; stroke-linejoin: miter"/>
   </g>
   <g id="patch_50">
    <path d="M 204.89876 178.2944 
L 216.699598 178.2944 
L 216.699598 166.294564 
L 204.89876 166.294564 
z
" clip-path="url(#p2ac3c970d2)" style="fill: #e5e7eb; opacity: 0.9; stroke: #374151; stroke-width: 0.4; stroke-linejoin: miter"/>
   </g>
   <g id="patch_51">
    <path d="M 220.02804 178.2944 
L 231.828877 178.2944 
L 231.828877 166.294564 
L 220.02804 166.294564 
z
" clip-path="url(#p2ac3c970d2)" style="fill: #e5e7eb; opacity: 0.9; stroke: #374151; stroke-width: 0.4; stroke-linejoin: miter"/>
   </g>
   <g id="patch_52">
    <path d="M 235.157319 178.2944 
L 246.958157 178.2944 
L 246.958157 166.294564 
L 235.157319 166.294564 
z
" clip-path="url(#p2ac3c970d2)" style="fill: #e5e7eb; opacity: 0.9; stroke: #374151; stroke-width: 0.4; stroke-linejoin: miter"/>
   </g>
   <g id="patch_53">
    <path d="M 250.286598 178.2944 
L 262.087436 178.2944 
L 262.087436 166.294564 
L 250.286598 166.294564 
z
" clip-path="url(#p2ac3c970d2)" style="fill: #e5e7eb; opacity: 0.9; stroke: #374151; stroke-width: 0.4; stroke-linejoin: miter"/>
   </g>
   <g id="patch_54">
    <path d="M 265.415877 178.2944 
L 277.216715 178.2944 
L 277.216715 166.294564 
L 265.415877 166.294564 
z
" clip-path="url(#p2ac3c970d2)" style="fill: #e5e7eb; opacity: 0.9; stroke: #374151; stroke-width: 0.4; stroke-linejoin: miter"/>
   </g>
   <g id="patch_55">
    <path d="M 280.545157 178.2944 
L 292.345995 178.2944 
L 292.345995 166.294564 
L 280.545157 166.294564 
z
" clip-path="url(#p2ac3c970d2)" style="fill: #e5e7eb; opacity: 0.9; stroke: #374151; stroke-width: 0.4; stroke-linejoin: miter"/>
   </g>
   <g id="patch_56">
    <path d="M 295.674436 178.2944 
L 307.475274 178.2944 
L 307.475274 166.294564 
L 295.674436 166.294564 
z
" clip-path="url(#p2ac3c970d2)" style="fill: #e5e7eb; opacity: 0.9; stroke: #374151; stroke-width: 0.4; stroke-linejoin: miter"/>
   </g>
   <g id="patch_57">
    <path d="M 310.803715 178.2944 
L 322.604553 178.2944 
L 322.604553 166.294564 
L 310.803715 166.294564 
z
" clip-path="url(#p2ac3c970d2)" style="fill: #e5e7eb; opacity: 0.9; stroke: #374151; stroke-width: 0.4; stroke-linejoin: miter"/>
   </g>
   <g id="patch_58">
    <path d="M 204.89876 197.648973 
L 216.699598 197.648973 
L 216.699598 185.649138 
L 204.89876 185.649138 
z
" clip-path="url(#p2ac3c970d2)" style="fill: #e5e7eb; opacity: 0.9; stroke: #374151; stroke-width: 0.4; stroke-linejoin: miter"/>
   </g>
   <g id="patch_59">
    <path d="M 220.02804 197.648973 
L 231.828877 197.648973 
L 231.828877 185.649138 
L 220.02804 185.649138 
z
" clip-path="url(#p2ac3c970d2)" style="fill: #e5e7eb; opacity: 0.9; stroke: #374151; stroke-width: 0.4; stroke-linejoin: miter"/>
   </g>
   <g id="patch_60">
    <path d="M 235.157319 197.648973 
L 246.958157 197.648973 
L 246.958157 185.649138 
L 235.157319 185.649138 
z
" clip-path="url(#p2ac3c970d2)" style="fill: #e5e7eb; opacity: 0.9; stroke: #374151; stroke-width: 0.4; stroke-linejoin: miter"/>
   </g>
   <g id="patch_61">
    <path d="M 250.286598 197.648973 
L 262.087436 197.648973 
L 262.087436 185.649138 
L 250.286598 185.649138 
z
" clip-path="url(#p2ac3c970d2)" style="fill: #e5e7eb; opacity: 0.9; stroke: #374151; stroke-width: 0.4; stroke-linejoin: miter"/>
   </g>
   <g id="patch_62">
    <path d="M 265.415877 197.648973 
L 277.216715 197.648973 
L 277.216715 185.649138 
L 265.415877 185.649138 
z
" clip-path="url(#p2ac3c970d2)" style="fill: #e5e7eb; opacity: 0.9; stroke: #374151; stroke-width: 0.4; stroke-linejoin: miter"/>
   </g>
   <g id="patch_63">
    <path d="M 280.545157 197.648973 
L 292.345995 197.648973 
L 292.345995 185.649138 
L 280.545157 185.649138 
z
" clip-path="url(#p2ac3c970d2)" style="fill: #e5e7eb; opacity: 0.9; stroke: #374151; stroke-width: 0.4; stroke-linejoin: miter"/>
   </g>
   <g id="patch_64">
    <path d="M 295.674436 197.648973 
L 307.475274 197.648973 
L 307.475274 185.649138 
L 295.674436 185.649138 
z
" clip-path="url(#p2ac3c970d2)" style="fill: #e5e7eb; opacity: 0.9; stroke: #374151; stroke-width: 0.4; stroke-linejoin: miter"/>
   </g>
   <g id="patch_65">
    <path d="M 310.803715 197.648973 
L 322.604553 197.648973 
L 322.604553 185.649138 
L 310.803715 185.649138 
z
" clip-path="url(#p2ac3c970d2)" style="fill: #e5e7eb; opacity: 0.9; stroke: #374151; stroke-width: 0.4; stroke-linejoin: miter"/>
   </g>
   <g id="patch_66">
    <path d="M 204.89876 217.003547 
L 216.699598 217.003547 
L 216.699598 205.003711 
L 204.89876 205.003711 
z
" clip-path="url(#p2ac3c970d2)" style="fill: #e5e7eb; opacity: 0.9; stroke: #374151; stroke-width: 0.4; stroke-linejoin: miter"/>
   </g>
   <g id="patch_67">
    <path d="M 220.02804 217.003547 
L 231.828877 217.003547 
L 231.828877 205.003711 
L 220.02804 205.003711 
z
" clip-path="url(#p2ac3c970d2)" style="fill: #e5e7eb; opacity: 0.9; stroke: #374151; stroke-width: 0.4; stroke-linejoin: miter"/>
   </g>
   <g id="patch_68">
    <path d="M 235.157319 217.003547 
L 246.958157 217.003547 
L 246.958157 205.003711 
L 235.157319 205.003711 
z
" clip-path="url(#p2ac3c970d2)" style="fill: #e5e7eb; opacity: 0.9; stroke: #374151; stroke-width: 0.4; stroke-linejoin: miter"/>
   </g>
   <g id="patch_69">
    <path d="M 250.286598 217.003547 
L 262.087436 217.003547 
L 262.087436 205.003711 
L 250.286598 205.003711 
z
" clip-path="url(#p2ac3c970d2)" style="fill: #e5e7eb; opacity: 0.9; stroke: #374151; stroke-width: 0.4; stroke-linejoin: miter"/>
   </g>
   <g id="patch_70">
    <path d="M 265.415877 217.003547 
L 277.216715 217.003547 
L 277.216715 205.003711 
L 265.415877 205.003711 
z
" clip-path="url(#p2ac3c970d2)" style="fill: #e5e7eb; opacity: 0.9; stroke: #374151; stroke-width: 0.4; stroke-linejoin: miter"/>
   </g>
   <g id="patch_71">
    <path d="M 280.545157 217.003547 
L 292.345995 217.003547 
L 292.345995 205.003711 
L 280.545157 205.003711 
z
" clip-path="url(#p2ac3c970d2)" style="fill: #e5e7eb; opacity: 0.9; stroke: #374151; stroke-width: 0.4; stroke-linejoin: miter"/>
   </g>
   <g id="patch_72">
    <path d="M 295.674436 217.003547 
L 307.475274 217.003547 
L 307.475274 205.003711 
L 295.674436 205.003711 
z
" clip-path="url(#p2ac3c970d2)" style="fill: #e5e7eb; opacity: 0.9; stroke: #374151; stroke-width: 0.4; stroke-linejoin: miter"/>
   </g>
   <g id="patch_73">
    <path d="M 310.803715 217.003547 
L 322.604553 217.003547 
L 322.604553 205.003711 
L 310.803715 205.003711 
z
" clip-path="url(#p2ac3c970d2)" style="fill: #e5e7eb; opacity: 0.9; stroke: #374151; stroke-width: 0.4; stroke-linejoin: miter"/>
   </g>
   <g id="patch_74">
    <path d="M 357.554551 158.939826 
L 369.355389 158.939826 
L 369.355389 146.939991 
L 357.554551 146.939991 
z
" clip-path="url(#p2ac3c970d2)" style="fill: #e5e7eb; opacity: 0.9; stroke: #374151; stroke-width: 0.4; stroke-linejoin: miter"/>
   </g>
   <g id="patch_75">
    <path d="M 372.683831 158.939826 
L 384.484668 158.939826 
L 384.484668 146.939991 
L 372.683831 146.939991 
z
" clip-path="url(#p2ac3c970d2)" style="fill: #e5e7eb; opacity: 0.9; stroke: #374151; stroke-width: 0.4; stroke-linejoin: miter"/>
   </g>
   <g id="patch_76">
    <path d="M 387.81311 158.939826 
L 399.613948 158.939826 
L 399.613948 146.939991 
L 387.81311 146.939991 
z
" clip-path="url(#p2ac3c970d2)" style="fill: #e5e7eb; opacity: 0.9; stroke: #374151; stroke-width: 0.4; stroke-linejoin: miter"/>
   </g>
   <g id="patch_77">
    <path d="M 402.942389 158.939826 
L 414.743227 158.939826 
L 414.743227 146.939991 
L 402.942389 146.939991 
z
" clip-path="url(#p2ac3c970d2)" style="fill: #e5e7eb; opacity: 0.9; stroke: #374151; stroke-width: 0.4; stroke-linejoin: miter"/>
   </g>
   <g id="patch_78">
    <path d="M 418.071668 158.939826 
L 429.872506 158.939826 
L 429.872506 146.939991 
L 418.071668 146.939991 
z
" clip-path="url(#p2ac3c970d2)" style="fill: #e5e7eb; opacity: 0.9; stroke: #374151; stroke-width: 0.4; stroke-linejoin: miter"/>
   </g>
   <g id="patch_79">
    <path d="M 433.200948 158.939826 
L 445.001786 158.939826 
L 445.001786 146.939991 
L 433.200948 146.939991 
z
" clip-path="url(#p2ac3c970d2)" style="fill: #e5e7eb; opacity: 0.9; stroke: #374151; stroke-width: 0.4; stroke-linejoin: miter"/>
   </g>
   <g id="patch_80">
    <path d="M 448.330227 158.939826 
L 460.131065 158.939826 
L 460.131065 146.939991 
L 448.330227 146.939991 
z
" clip-path="url(#p2ac3c970d2)" style="fill: #e5e7eb; opacity: 0.9; stroke: #374151; stroke-width: 0.4; stroke-linejoin: miter"/>
   </g>
   <g id="patch_81">
    <path d="M 463.459506 158.939826 
L 475.260344 158.939826 
L 475.260344 146.939991 
L 463.459506 146.939991 
z
" clip-path="url(#p2ac3c970d2)" style="fill: #e5e7eb; opacity: 0.9; stroke: #374151; stroke-width: 0.4; stroke-linejoin: miter"/>
   </g>
   <g id="patch_82">
    <path d="M 357.554551 178.2944 
L 369.355389 178.2944 
L 369.355389 166.294564 
L 357.554551 166.294564 
z
" clip-path="url(#p2ac3c970d2)" style="fill: #e5e7eb; opacity: 0.9; stroke: #374151; stroke-width: 0.4; stroke-linejoin: miter"/>
   </g>
   <g id="patch_83">
    <path d="M 372.683831 178.2944 
L 384.484668 178.2944 
L 384.484668 166.294564 
L 372.683831 166.294564 
z
" clip-path="url(#p2ac3c970d2)" style="fill: #e5e7eb; opacity: 0.9; stroke: #374151; stroke-width: 0.4; stroke-linejoin: miter"/>
   </g>
   <g id="patch_84">
    <path d="M 387.81311 178.2944 
L 399.613948 178.2944 
L 399.613948 166.294564 
L 387.81311 166.294564 
z
" clip-path="url(#p2ac3c970d2)" style="fill: #e5e7eb; opacity: 0.9; stroke: #374151; stroke-width: 0.4; stroke-linejoin: miter"/>
   </g>
   <g id="patch_85">
    <path d="M 402.942389 178.2944 
L 414.743227 178.2944 
L 414.743227 166.294564 
L 402.942389 166.294564 
z
" clip-path="url(#p2ac3c970d2)" style="fill: #e5e7eb; opacity: 0.9; stroke: #374151; stroke-width: 0.4; stroke-linejoin: miter"/>
   </g>
   <g id="patch_86">
    <path d="M 418.071668 178.2944 
L 429.872506 178.2944 
L 429.872506 166.294564 
L 418.071668 166.294564 
z
" clip-path="url(#p2ac3c970d2)" style="fill: #e5e7eb; opacity: 0.9; stroke: #374151; stroke-width: 0.4; stroke-linejoin: miter"/>
   </g>
   <g id="patch_87">
    <path d="M 433.200948 178.2944 
L 445.001786 178.2944 
L 445.001786 166.294564 
L 433.200948 166.294564 
z
" clip-path="url(#p2ac3c970d2)" style="fill: #e5e7eb; opacity: 0.9; stroke: #374151; stroke-width: 0.4; stroke-linejoin: miter"/>
   </g>
   <g id="patch_88">
    <path d="M 448.330227 178.2944 
L 460.131065 178.2944 
L 460.131065 166.294564 
L 448.330227 166.294564 
z
" clip-path="url(#p2ac3c970d2)" style="fill: #e5e7eb; opacity: 0.9; stroke: #374151; stroke-width: 0.4; stroke-linejoin: miter"/>
   </g>
   <g id="patch_89">
    <path d="M 463.459506 178.2944 
L 475.260344 178.2944 
L 475.260344 166.294564 
L 463.459506 166.294564 
z
" clip-path="url(#p2ac3c970d2)" style="fill: #e5e7eb; opacity: 0.9; stroke: #374151; stroke-width: 0.4; stroke-linejoin: miter"/>
   </g>
   <g id="patch_90">
    <path d="M 357.554551 197.648973 
L 369.355389 197.648973 
L 369.355389 185.649138 
L 357.554551 185.649138 
z
" clip-path="url(#p2ac3c970d2)" style="fill: #e5e7eb; opacity: 0.9; stroke: #374151; stroke-width: 0.4; stroke-linejoin: miter"/>
   </g>
   <g id="patch_91">
    <path d="M 372.683831 197.648973 
L 384.484668 197.648973 
L 384.484668 185.649138 
L 372.683831 185.649138 
z
" clip-path="url(#p2ac3c970d2)" style="fill: #e5e7eb; opacity: 0.9; stroke: #374151; stroke-width: 0.4; stroke-linejoin: miter"/>
   </g>
   <g id="patch_92">
    <path d="M 387.81311 197.648973 
L 399.613948 197.648973 
L 399.613948 185.649138 
L 387.81311 185.649138 
z
" clip-path="url(#p2ac3c970d2)" style="fill: #e5e7eb; opacity: 0.9; stroke: #374151; stroke-width: 0.4; stroke-linejoin: miter"/>
   </g>
   <g id="patch_93">
    <path d="M 402.942389 197.648973 
L 414.743227 197.648973 
L 414.743227 185.649138 
L 402.942389 185.649138 
z
" clip-path="url(#p2ac3c970d2)" style="fill: #e5e7eb; opacity: 0.9; stroke: #374151; stroke-width: 0.4; stroke-linejoin: miter"/>
   </g>
   <g id="patch_94">
    <path d="M 418.071668 197.648973 
L 429.872506 197.648973 
L 429.872506 185.649138 
L 418.071668 185.649138 
z
" clip-path="url(#p2ac3c970d2)" style="fill: #e5e7eb; opacity: 0.9; stroke: #374151; stroke-width: 0.4; stroke-linejoin: miter"/>
   </g>
   <g id="patch_95">
    <path d="M 433.200948 197.648973 
L 445.001786 197.648973 
L 445.001786 185.649138 
L 433.200948 185.649138 
z
" clip-path="url(#p2ac3c970d2)" style="fill: #e5e7eb; opacity: 0.9; stroke: #374151; stroke-width: 0.4; stroke-linejoin: miter"/>
   </g>
   <g id="patch_96">
    <path d="M 448.330227 197.648973 
L 460.131065 197.648973 
L 460.131065 185.649138 
L 448.330227 185.649138 
z
" clip-path="url(#p2ac3c970d2)" style="fill: #e5e7eb; opacity: 0.9; stroke: #374151; stroke-width: 0.4; stroke-linejoin: miter"/>
   </g>
   <g id="patch_97">
    <path d="M 463.459506 197.648973 
L 475.260344 197.648973 
L 475.260344 185.649138 
L 463.459506 185.649138 
z
" clip-path="url(#p2ac3c970d2)" style="fill: #e5e7eb; opacity: 0.9; stroke: #374151; stroke-width: 0.4; stroke-linejoin: miter"/>
   </g>
   <g id="patch_98">
    <path d="M 357.554551 217.003547 
L 369.355389 217.003547 
L 369.355389 205.003711 
L 357.554551 205.003711 
z
" clip-path="url(#p2ac3c970d2)" style="fill: #e5e7eb; opacity: 0.9; stroke: #374151; stroke-width: 0.4; stroke-linejoin: miter"/>
   </g>
   <g id="patch_99">
    <path d="M 372.683831 217.003547 
L 384.484668 217.003547 
L 384.484668 205.003711 
L 372.683831 205.003711 
z
" clip-path="url(#p2ac3c970d2)" style="fill: #e5e7eb; opacity: 0.9; stroke: #374151; stroke-width: 0.4; stroke-linejoin: miter"/>
   </g>
   <g id="patch_100">
    <path d="M 387.81311 217.003547 
L 399.613948 217.003547 
L 399.613948 205.003711 
L 387.81311 205.003711 
z
" clip-path="url(#p2ac3c970d2)" style="fill: #e5e7eb; opacity: 0.9; stroke: #374151; stroke-width: 0.4; stroke-linejoin: miter"/>
   </g>
   <g id="patch_101">
    <path d="M 402.942389 217.003547 
L 414.743227 217.003547 
L 414.743227 205.003711 
L 402.942389 205.003711 
z
" clip-path="url(#p2ac3c970d2)" style="fill: #e5e7eb; opacity: 0.9; stroke: #374151; stroke-width: 0.4; stroke-linejoin: miter"/>
   </g>
   <g id="patch_102">
    <path d="M 418.071668 217.003547 
L 429.872506 217.003547 
L 429.872506 205.003711 
L 418.071668 205.003711 
z
" clip-path="url(#p2ac3c970d2)" style="fill: #e5e7eb; opacity: 0.9; stroke: #374151; stroke-width: 0.4; stroke-linejoin: miter"/>
   </g>
   <g id="patch_103">
    <path d="M 433.200948 217.003547 
L 445.001786 217.003547 
L 445.001786 205.003711 
L 433.200948 205.003711 
z
" clip-path="url(#p2ac3c970d2)" style="fill: #e5e7eb; opacity: 0.9; stroke: #374151; stroke-width: 0.4; stroke-linejoin: miter"/>
   </g>
   <g id="patch_104">
    <path d="M 448.330227 217.003547 
L 460.131065 217.003547 
L 460.131065 205.003711 
L 448.330227 205.003711 
z
" clip-path="url(#p2ac3c970d2)" style="fill: #e5e7eb; opacity: 0.9; stroke: #374151; stroke-width: 0.4; stroke-linejoin: miter"/>
   </g>
   <g id="patch_105">
    <path d="M 463.459506 217.003547 
L 475.260344 217.003547 
L 475.260344 205.003711 
L 463.459506 205.003711 
z
" clip-path="url(#p2ac3c970d2)" style="fill: #e5e7eb; opacity: 0.9; stroke: #374151; stroke-width: 0.4; stroke-linejoin: miter"/>
   </g>
   <g id="patch_106">
    <path d="M 510.210342 158.939826 
L 522.01118 158.939826 
L 522.01118 146.939991 
L 510.210342 146.939991 
z
" clip-path="url(#p2ac3c970d2)" style="fill: #e5e7eb; opacity: 0.9; stroke: #374151; stroke-width: 0.4; stroke-linejoin: miter"/>
   </g>
   <g id="patch_107">
    <path d="M 525.339622 158.939826 
L 537.14046 158.939826 
L 537.14046 146.939991 
L 525.339622 146.939991 
z
" clip-path="url(#p2ac3c970d2)" style="fill: #e5e7eb; opacity: 0.9; stroke: #374151; stroke-width: 0.4; stroke-linejoin: miter"/>
   </g>
   <g id="patch_108">
    <path d="M 540.468901 158.939826 
L 552.269739 158.939826 
L 552.269739 146.939991 
L 540.468901 146.939991 
z
" clip-path="url(#p2ac3c970d2)" style="fill: #e5e7eb; opacity: 0.9; stroke: #374151; stroke-width: 0.4; stroke-linejoin: miter"/>
   </g>
   <g id="patch_109">
    <path d="M 555.59818 158.939826 
L 567.399018 158.939826 
L 567.399018 146.939991 
L 555.59818 146.939991 
z
" clip-path="url(#p2ac3c970d2)" style="fill: #e5e7eb; opacity: 0.9; stroke: #374151; stroke-width: 0.4; stroke-linejoin: miter"/>
   </g>
   <g id="patch_110">
    <path d="M 570.72746 158.939826 
L 582.528297 158.939826 
L 582.528297 146.939991 
L 570.72746 146.939991 
z
" clip-path="url(#p2ac3c970d2)" style="fill: #e5e7eb; opacity: 0.9; stroke: #374151; stroke-width: 0.4; stroke-linejoin: miter"/>
   </g>
   <g id="patch_111">
    <path d="M 585.856739 158.939826 
L 597.657577 158.939826 
L 597.657577 146.939991 
L 585.856739 146.939991 
z
" clip-path="url(#p2ac3c970d2)" style="fill: #e5e7eb; opacity: 0.9; stroke: #374151; stroke-width: 0.4; stroke-linejoin: miter"/>
   </g>
   <g id="patch_112">
    <path d="M 600.986018 158.939826 
L 612.786856 158.939826 
L 612.786856 146.939991 
L 600.986018 146.939991 
z
" clip-path="url(#p2ac3c970d2)" style="fill: #e5e7eb; opacity: 0.9; stroke: #374151; stroke-width: 0.4; stroke-linejoin: miter"/>
   </g>
   <g id="patch_113">
    <path d="M 616.115297 158.939826 
L 627.916135 158.939826 
L 627.916135 146.939991 
L 616.115297 146.939991 
z
" clip-path="url(#p2ac3c970d2)" style="fill: #e5e7eb; opacity: 0.9; stroke: #374151; stroke-width: 0.4; stroke-linejoin: miter"/>
   </g>
   <g id="patch_114">
    <path d="M 510.210342 178.2944 
L 522.01118 178.2944 
L 522.01118 166.294564 
L 510.210342 166.294564 
z
" clip-path="url(#p2ac3c970d2)" style="fill: #e5e7eb; opacity: 0.9; stroke: #374151; stroke-width: 0.4; stroke-linejoin: miter"/>
   </g>
   <g id="patch_115">
    <path d="M 525.339622 178.2944 
L 537.14046 178.2944 
L 537.14046 166.294564 
L 525.339622 166.294564 
z
" clip-path="url(#p2ac3c970d2)" style="fill: #e5e7eb; opacity: 0.9; stroke: #374151; stroke-width: 0.4; stroke-linejoin: miter"/>
   </g>
   <g id="patch_116">
    <path d="M 540.468901 178.2944 
L 552.269739 178.2944 
L 552.269739 166.294564 
L 540.468901 166.294564 
z
" clip-path="url(#p2ac3c970d2)" style="fill: #e5e7eb; opacity: 0.9; stroke: #374151; stroke-width: 0.4; stroke-linejoin: miter"/>
   </g>
   <g id="patch_117">
    <path d="M 555.59818 178.2944 
L 567.399018 178.2944 
L 567.399018 166.294564 
L 555.59818 166.294564 
z
" clip-path="url(#p2ac3c970d2)" style="fill: #e5e7eb; opacity: 0.9; stroke: #374151; stroke-width: 0.4; stroke-linejoin: miter"/>
   </g>
   <g id="patch_118">
    <path d="M 570.72746 178.2944 
L 582.528297 178.2944 
L 582.528297 166.294564 
L 570.72746 166.294564 
z
" clip-path="url(#p2ac3c970d2)" style="fill: #e5e7eb; opacity: 0.9; stroke: #374151; stroke-width: 0.4; stroke-linejoin: miter"/>
   </g>
   <g id="patch_119">
    <path d="M 585.856739 178.2944 
L 597.657577 178.2944 
L 597.657577 166.294564 
L 585.856739 166.294564 
z
" clip-path="url(#p2ac3c970d2)" style="fill: #e5e7eb; opacity: 0.9; stroke: #374151; stroke-width: 0.4; stroke-linejoin: miter"/>
   </g>
   <g id="patch_120">
    <path d="M 600.986018 178.2944 
L 612.786856 178.2944 
L 612.786856 166.294564 
L 600.986018 166.294564 
z
" clip-path="url(#p2ac3c970d2)" style="fill: #e5e7eb; opacity: 0.9; stroke: #374151; stroke-width: 0.4; stroke-linejoin: miter"/>
   </g>
   <g id="patch_121">
    <path d="M 616.115297 178.2944 
L 627.916135 178.2944 
L 627.916135 166.294564 
L 616.115297 166.294564 
z
" clip-path="url(#p2ac3c970d2)" style="fill: #e5e7eb; opacity: 0.9; stroke: #374151; stroke-width: 0.4; stroke-linejoin: miter"/>
   </g>
   <g id="patch_122">
    <path d="M 510.210342 197.648973 
L 522.01118 197.648973 
L 522.01118 185.649138 
L 510.210342 185.649138 
z
" clip-path="url(#p2ac3c970d2)" style="fill: #e5e7eb; opacity: 0.9; stroke: #374151; stroke-width: 0.4; stroke-linejoin: miter"/>
   </g>
   <g id="patch_123">
    <path d="M 525.339622 197.648973 
L 537.14046 197.648973 
L 537.14046 185.649138 
L 525.339622 185.649138 
z
" clip-path="url(#p2ac3c970d2)" style="fill: #e5e7eb; opacity: 0.9; stroke: #374151; stroke-width: 0.4; stroke-linejoin: miter"/>
   </g>
   <g id="patch_124">
    <path d="M 540.468901 197.648973 
L 552.269739 197.648973 
L 552.269739 185.649138 
L 540.468901 185.649138 
z
" clip-path="url(#p2ac3c970d2)" style="fill: #e5e7eb; opacity: 0.9; stroke: #374151; stroke-width: 0.4; stroke-linejoin: miter"/>
   </g>
   <g id="patch_125">
    <path d="M 555.59818 197.648973 
L 567.399018 197.648973 
L 567.399018 185.649138 
L 555.59818 185.649138 
z
" clip-path="url(#p2ac3c970d2)" style="fill: #e5e7eb; opacity: 0.9; stroke: #374151; stroke-width: 0.4; stroke-linejoin: miter"/>
   </g>
   <g id="patch_126">
    <path d="M 570.72746 197.648973 
L 582.528297 197.648973 
L 582.528297 185.649138 
L 570.72746 185.649138 
z
" clip-path="url(#p2ac3c970d2)" style="fill: #e5e7eb; opacity: 0.9; stroke: #374151; stroke-width: 0.4; stroke-linejoin: miter"/>
   </g>
   <g id="patch_127">
    <path d="M 585.856739 197.648973 
L 597.657577 197.648973 
L 597.657577 185.649138 
L 585.856739 185.649138 
z
" clip-path="url(#p2ac3c970d2)" style="fill: #e5e7eb; opacity: 0.9; stroke: #374151; stroke-width: 0.4; stroke-linejoin: miter"/>
   </g>
   <g id="patch_128">
    <path d="M 600.986018 197.648973 
L 612.786856 197.648973 
L 612.786856 185.649138 
L 600.986018 185.649138 
z
" clip-path="url(#p2ac3c970d2)" style="fill: #e5e7eb; opacity: 0.9; stroke: #374151; stroke-width: 0.4; stroke-linejoin: miter"/>
   </g>
   <g id="patch_129">
    <path d="M 616.115297 197.648973 
L 627.916135 197.648973 
L 627.916135 185.649138 
L 616.115297 185.649138 
z
" clip-path="url(#p2ac3c970d2)" style="fill: #e5e7eb; opacity: 0.9; stroke: #374151; stroke-width: 0.4; stroke-linejoin: miter"/>
   </g>
   <g id="patch_130">
    <path d="M 510.210342 217.003547 
L 522.01118 217.003547 
L 522.01118 205.003711 
L 510.210342 205.003711 
z
" clip-path="url(#p2ac3c970d2)" style="fill: #e5e7eb; opacity: 0.9; stroke: #374151; stroke-width: 0.4; stroke-linejoin: miter"/>
   </g>
   <g id="patch_131">
    <path d="M 525.339622 217.003547 
L 537.14046 217.003547 
L 537.14046 205.003711 
L 525.339622 205.003711 
z
" clip-path="url(#p2ac3c970d2)" style="fill: #e5e7eb; opacity: 0.9; stroke: #374151; stroke-width: 0.4; stroke-linejoin: miter"/>
   </g>
   <g id="patch_132">
    <path d="M 540.468901 217.003547 
L 552.269739 217.003547 
L 552.269739 205.003711 
L 540.468901 205.003711 
z
" clip-path="url(#p2ac3c970d2)" style="fill: #e5e7eb; opacity: 0.9; stroke: #374151; stroke-width: 0.4; stroke-linejoin: miter"/>
   </g>
   <g id="patch_133">
    <path d="M 555.59818 217.003547 
L 567.399018 217.003547 
L 567.399018 205.003711 
L 555.59818 205.003711 
z
" clip-path="url(#p2ac3c970d2)" style="fill: #e5e7eb; opacity: 0.9; stroke: #374151; stroke-width: 0.4; stroke-linejoin: miter"/>
   </g>
   <g id="patch_134">
    <path d="M 570.72746 217.003547 
L 582.528297 217.003547 
L 582.528297 205.003711 
L 570.72746 205.003711 
z
" clip-path="url(#p2ac3c970d2)" style="fill: #e5e7eb; opacity: 0.9; stroke: #374151; stroke-width: 0.4; stroke-linejoin: miter"/>
   </g>
   <g id="patch_135">
    <path d="M 585.856739 217.003547 
L 597.657577 217.003547 
L 597.657577 205.003711 
L 585.856739 205.003711 
z
" clip-path="url(#p2ac3c970d2)" style="fill: #e5e7eb; opacity: 0.9; stroke: #374151; stroke-width: 0.4; stroke-linejoin: miter"/>
   </g>
   <g id="patch_136">
    <path d="M 600.986018 217.003547 
L 612.786856 217.003547 
L 612.786856 205.003711 
L 600.986018 205.003711 
z
" clip-path="url(#p2ac3c970d2)" style="fill: #e5e7eb; opacity: 0.9; stroke: #374151; stroke-width: 0.4; stroke-linejoin: miter"/>
   </g>
   <g id="patch_137">
    <path d="M 616.115297 217.003547 
L 627.916135 217.003547 
L 627.916135 205.003711 
L 616.115297 205.003711 
z
" clip-path="url(#p2ac3c970d2)" style="fill: #e5e7eb; opacity: 0.9; stroke: #374151; stroke-width: 0.4; stroke-linejoin: miter"/>
   </g>
  </g>
 </g>
 <defs>
  <clipPath id="p2ac3c970d2">
   <rect x="12.96" y="12.96" width="730.567" height="359.831507"/>
  </clipPath>
 </defs>
</svg>
